<svg id="Group_1617" data-name="Group 1617" xmlns="http://www.w3.org/2000/svg" width="28" height="28" viewBox="0 0 28 28">
  <rect id="Rectangle_438" data-name="Rectangle 438" width="28" height="28" rx="14" fill="#293240"/>
  <path id="fi-rr-angle-small-right" d="M9.838,9.182l3.839-3.934a.822.822,0,0,1,1.179,0,.859.859,0,0,1,.183.279.877.877,0,0,1,0,.659.859.859,0,0,1-.183.279l-3.848,3.925a.856.856,0,0,0-.183.279.877.877,0,0,0,0,.659.857.857,0,0,0,.183.279l3.848,3.925a.873.873,0,0,1,0,1.213.823.823,0,0,1-1.184,0L9.838,12.816a2.616,2.616,0,0,1,0-3.634Z" transform="translate(0.895 3.001)" fill="#fff"/>
</svg>
