<svg xmlns="http://www.w3.org/2000/svg" xmlns:xlink="http://www.w3.org/1999/xlink" width="40" height="40" viewBox="0 0 40 40">
  <defs>
    <clipPath id="clip-path">
      <rect id="Rectangle_448" data-name="Rectangle 448" width="18" height="18" fill="#ce8045"/>
    </clipPath>
  </defs>
  <g id="Disclaimers" transform="translate(0 8541.5)">
    <g id="Rectangle_316" data-name="Rectangle 316" transform="translate(0 -8541.5)" fill="rgba(206,128,69,0.2)" stroke="rgba(158,51,35,0.2)" stroke-width="1">
      <rect width="40" height="40" rx="8" stroke="none"/>
      <rect x="0.5" y="0.5" width="39" height="39" rx="7.5" fill="none"/>
    </g>
    <g id="Group_923" data-name="Group 923" transform="translate(8 -8533.5)">
      <rect id="Rectangle_345" data-name="Rectangle 345" width="24" height="24" fill="none"/>
      <g id="fi-rr-star" transform="translate(2.625 3)" clip-path="url(#clip-path)">
        <path id="Path_371" data-name="Path 371" d="M17.879,6.643a2.384,2.384,0,0,0-2.3-1.67H12.3l-1-3.1a2.42,2.42,0,0,0-4.609,0l-1,3.1H2.425A2.42,2.42,0,0,0,1,9.348L3.667,11.3l-1.014,3.14a2.415,2.415,0,0,0,3.738,2.7L9,15.212l2.612,1.919a2.42,2.42,0,0,0,3.737-2.693L14.337,11.3l2.67-1.95a2.383,2.383,0,0,0,.872-2.7ZM16.122,8.137l-3.108,2.272a.75.75,0,0,0-.272.837L13.923,14.9A.92.92,0,0,1,12.5,15.922l-3.056-2.25a.75.75,0,0,0-.888,0L5.5,15.922A.92.92,0,0,1,4.077,14.9l1.185-3.653a.75.75,0,0,0-.272-.837L1.882,8.137a.92.92,0,0,1,.543-1.663H6.25a.75.75,0,0,0,.714-.521L8.127,2.33a.92.92,0,0,1,1.752,0l1.162,3.623a.75.75,0,0,0,.714.521H15.58a.92.92,0,0,1,.543,1.663Z" transform="translate(-0.002 -0.048)" fill="#ce8045"/>
      </g>
    </g>
  </g>
</svg>
