<svg id="Group_1133" data-name="Group 1133" xmlns="http://www.w3.org/2000/svg" xmlns:xlink="http://www.w3.org/1999/xlink" width="24" height="24" viewBox="0 0 24 24">
  <defs>
    <clipPath id="clip-path">
      <rect id="Rectangle_415" data-name="Rectangle 415" width="20" height="20" fill="#ce8045"/>
    </clipPath>
  </defs>
  <rect id="Rectangle_417" data-name="Rectangle 417" width="24" height="24" fill="none"/>
  <g id="Group_1132" data-name="Group 1132" transform="translate(2 2)">
    <rect id="Rectangle_416" data-name="Rectangle 416" width="20" height="20" fill="none"/>
    <g id="fi-rr-edit" clip-path="url(#clip-path)">
      <path id="Path_330" data-name="Path 330" d="M16.38.783,6.22,10.943A4.138,4.138,0,0,0,5,13.889v1.119a.833.833,0,0,0,.833.833H6.953A4.138,4.138,0,0,0,9.9,14.621l10.16-10.16a2.6,2.6,0,0,0,0-3.678,2.662,2.662,0,0,0-3.678,0Zm2.5,2.5L8.72,13.443a2.517,2.517,0,0,1-1.767.732H6.667v-.286A2.517,2.517,0,0,1,7.4,12.121l10.16-10.16a.957.957,0,0,1,1.322,0,.936.936,0,0,1,0,1.322Z" transform="translate(-0.833 -0.008)" fill="#ce8045"/>
      <path id="Path_331" data-name="Path 331" d="M19.167,7.483a.833.833,0,0,0-.833.833V12.5H15A2.5,2.5,0,0,0,12.5,15v3.333H4.167a2.5,2.5,0,0,1-2.5-2.5V4.167a2.5,2.5,0,0,1,2.5-2.5H11.7A.833.833,0,0,0,11.7,0H4.167A4.172,4.172,0,0,0,0,4.167V15.833A4.172,4.172,0,0,0,4.167,20h9.452a4.14,4.14,0,0,0,2.947-1.22l2.213-2.215A4.14,4.14,0,0,0,20,13.619v-5.3a.833.833,0,0,0-.833-.833ZM15.387,17.6a2.479,2.479,0,0,1-1.221.667V15A.833.833,0,0,1,15,14.167h3.271a2.514,2.514,0,0,1-.667,1.22Z" transform="translate(0 0)" fill="#ce8045"/>
    </g>
  </g>
</svg>
