<svg xmlns="http://www.w3.org/2000/svg" width="24" height="24" viewBox="0 0 24 24">
  <g id="Group_1512" data-name="Group 1512" transform="translate(-48 -201.76)">
    <rect id="Rectangle_145" data-name="Rectangle 145" width="24" height="24" transform="translate(48 201.76)" fill="none"/>
    <path id="Path_1163" data-name="Path 1163" d="M19.268,7.565,12.947,1.24a4.172,4.172,0,0,0-5.893,0L.733,7.565A2.484,2.484,0,0,0,0,9.334V17.52a2.5,2.5,0,0,0,2.5,2.5h15a2.5,2.5,0,0,0,2.5-2.5V9.334a2.484,2.484,0,0,0-.733-1.769ZM12.5,18.354h-5v-3.28a2.5,2.5,0,1,1,5,0Zm5.833-.834a.834.834,0,0,1-.833.834H14.167v-3.28a4.167,4.167,0,1,0-8.333,0v3.28H2.5a.834.834,0,0,1-.833-.834V9.334a.841.841,0,0,1,.244-.59L8.232,2.422a2.506,2.506,0,0,1,3.537,0l6.321,6.325a.841.841,0,0,1,.244.587Z" transform="translate(50 203.739)" fill="#eaf6fc"/>
  </g>
</svg>
