<svg xmlns="http://www.w3.org/2000/svg" width="309.619" height="76.602" viewBox="0 0 309.619 76.602">
  <g id="Group_1679" data-name="Group 1679" transform="translate(23132.008 2621)">
    <rect id="Rectangle_804" data-name="Rectangle 804" width="309.599" height="76.602" transform="translate(-23131.996 -2621)" fill="none"/>
    <g id="Layer_2" data-name="Layer 2" transform="translate(-23132.008 -2619.404)">
      <g id="Layer_1" data-name="Layer 1" transform="translate(0 0)">
        <path id="Path_372" data-name="Path 372" d="M31.484,42.93c-1.414,10.046-3.43,19.881-5.667,19.881S21.576,52.976,20.16,42.93Z" transform="translate(4.522 9.852)" fill="#fff"/>
        <path id="Path_373" data-name="Path 373" d="M34.006,20.283c0,1.87-.651,9.835-1.746,18.123H20.186c-1.093-8.351-1.746-16.254-1.746-18.123a7.783,7.783,0,1,1,15.566,0Z" transform="translate(4.127 2.868)" fill="#fff"/>
        <path id="Path_374" data-name="Path 374" d="M28.464,1.87c0,1.033-1.352,9.835-3.032,9.835S22.4,2.962,22.4,1.87,23.768,0,25.44,0,28.464.836,28.464,1.87Z" transform="translate(5.033)" fill="#fff"/>
        <path id="Path_375" data-name="Path 375" d="M21.049,2.415c.418.946,2.713,9.492,1.23,10.155S15.96,5.79,15.538,4.861,16.03,2.6,17.556,1.923,20.668,1.468,21.049,2.415Z" transform="translate(3.436 0.351)" fill="#fff"/>
        <path id="Path_376" data-name="Path 376" d="M29.832,2.416c-.418.946-2.713,9.492-1.23,10.155S34.947,5.8,35.353,4.86s-.479-2.26-2.016-2.938S30.251,1.469,29.832,2.416Z" transform="translate(6.346 0.35)" fill="#fff"/>
        <path id="Path_377" data-name="Path 377" d="M15.3,42.93c-.91,5.364-2.041,9.835-3.3,9.835S9.642,48.291,8.726,42.93Z" transform="translate(1.898 9.852)" fill="#fff"/>
        <path id="Path_378" data-name="Path 378" d="M17.692,24.476c0,1.23-.442,6.652-1.23,12.288H8.3C7.563,31.084,7.07,25.7,7.07,24.476a5.3,5.3,0,0,1,10.585,0Z" transform="translate(1.517 4.465)" fill="#fff"/>
        <path id="Path_379" data-name="Path 379" d="M13.913,11.99c0,.713-.922,6.652-2.052,6.652S9.81,12.7,9.81,11.99s.922-1.23,2.052-1.23S13.913,11.288,13.913,11.99Z" transform="translate(2.146 2.47)" fill="#fff"/>
        <path id="Path_380" data-name="Path 380" d="M8.9,12.368c.282.638,1.845,6.454.8,6.91s-4.277-4.6-4.559-5.25.33-1.537,1.363-1.976S8.673,11.73,8.9,12.368Z" transform="translate(1.058 2.705)" fill="#fff"/>
        <path id="Path_381" data-name="Path 381" d="M14.845,12.372c-.282.638-1.832,6.454-.8,6.91s4.283-4.593,4.571-5.25-.332-1.537-1.372-1.995S15.126,11.733,14.845,12.372Z" transform="translate(3.038 2.701)" fill="#fff"/>
        <path id="Path_382" data-name="Path 382" d="M42.145,42.93c-.9,5.364-2.041,9.835-3.283,9.835S36.478,48.3,35.58,42.93Z" transform="translate(8.06 9.852)" fill="#fff"/>
        <path id="Path_383" data-name="Path 383" d="M44.542,24.476c0,1.23-.442,6.652-1.23,12.288H35.15c-.748-5.68-1.23-11.066-1.23-12.288a5.3,5.3,0,0,1,10.585,0Z" transform="translate(7.679 4.465)" fill="#fff"/>
        <path id="Path_384" data-name="Path 384" d="M40.768,11.99c0,.713-.922,6.652-2.052,6.652S36.651,12.7,36.651,11.99s.922-1.23,2.065-1.23S40.768,11.288,40.768,11.99Z" transform="translate(8.306 2.47)" fill="#fff"/>
        <path id="Path_385" data-name="Path 385" d="M35.7,12.372c.282.638,1.845,6.454.8,6.91s-4.24-4.6-4.491-5.25.319-1.537,1.364-1.995S35.455,11.733,35.7,12.372Z" transform="translate(7.226 2.701)" fill="#fff"/>
        <path id="Path_386" data-name="Path 386" d="M41.7,12.372c-.282.638-1.845,6.454-.8,6.91s4.279-4.6,4.561-5.25-.332-1.537-1.364-1.995S41.977,11.733,41.7,12.372Z" transform="translate(9.199 2.701)" fill="#fff"/>
        <path id="Path_387" data-name="Path 387" d="M308.4,39.911H1.4a1.425,1.425,0,0,1,0-2.841h307a1.425,1.425,0,0,1,0,2.841Z" transform="translate(-0.087 8.506)" fill="#fff"/>
        <path id="Path_395" data-name="Path 395" d="M26.92-13.426c0-6.79-4.939-8.356-11.49-8.356H.66v3.375l.823.083c2.3.249,2.8.823,2.8,3.457v14.2c0,2.635-.5,3.211-2.8,3.457L.66,2.874V6.25H15.107V2.874l-.819-.083c-2.311-.249-2.8-.815-2.8-3.457V-5.11h3.91C22.927-5.111,26.92-7.992,26.92-13.426Zm-7.9-.078c0,3.005-2.223,4.74-6.174,4.74a9.3,9.3,0,0,1-1.358-.083V-14.98c0-1.934,0-3.005,2.8-3.005A4.39,4.39,0,0,1,17.646-16.8,4.39,4.39,0,0,1,19.017-13.5Zm27.4,2.51a3.683,3.683,0,0,0-1.048-2.679,3.683,3.683,0,0,0-2.656-1.108c-1.687,0-2.713.453-5.426,2.394v-2.027H34.737l-6.42,1.194v3.334l.74.083c1.811.206,2.263.865,2.263,3.375V-.5c0,2.346-.249,2.758-1.811,3.128l-1.194.289V6.25H40.988V2.914l-1.194-.282C38.23,2.258,37.983,1.85,37.983-.5V-8.475a2.234,2.234,0,0,1,1.647-.659c1.235,0,1.522,1.277,3.54,1.277a3.106,3.106,0,0,0,2.3-.867A3.106,3.106,0,0,0,46.42-11ZM61.353,6.248V2.914l-1.277-.282C58.512,2.258,58.265,1.85,58.265-.5V-14.412H55.711l-7.244,1.194v3.334l.865.083c1.77.16,2.263.865,2.263,3.375V-.5c0,2.346-.249,2.8-1.811,3.128l-1.317.289V6.251ZM59.007-21.2a4.116,4.116,0,0,0-3.951-4.074,3.784,3.784,0,0,0-2.8,1.106,3.784,3.784,0,0,0-1.106,2.8A3.961,3.961,0,0,0,52.32-18.56a3.961,3.961,0,0,0,2.817,1.146,3.875,3.875,0,0,0,3.87-3.79ZM103.12,6.248V2.914l-1.358-.282C100.239,2.3,99.95,1.85,99.95-.5V-8.475c0-5.021-3.457-6.3-6.586-6.3a14.717,14.717,0,0,0-7.66,2.14,7.877,7.877,0,0,0-5.546-2.148,14.272,14.272,0,0,0-7.327,1.893V-14.41H70.278l-6.586,1.194v3.334l.9.083c1.77.16,2.263.9,2.263,3.375V-.5c0,2.346-.289,2.8-1.811,3.128L63.7,2.919V6.253H76.084V2.914l-.74-.206C73.78,2.255,73.532,1.843,73.532-.5V-8.9a9.735,9.735,0,0,1,4.74-1.687c1.277,0,1.811.74,1.811,2.429V-.5c0,2.346-.249,2.758-1.811,3.211l-.74.206V6.254H89.295V2.914l-.74-.206C86.99,2.255,86.743,1.843,86.743-.5V-8.9a9.76,9.76,0,0,1,4.269-1.436,2.142,2.142,0,0,1,1.674.651,2.142,2.142,0,0,1,.59,1.7V-.5c0,2.346-.249,2.758-1.811,3.211l-.74.206V6.256ZM126.9.362l-3.452-1.687c-1.605,2.394-3.292,3.5-5.392,3.5-3.211,0-4.981-2.263-4.981-6.383h13.335a11.849,11.849,0,0,0-1.071-6.008,9.894,9.894,0,0,0-8.884-4.563,10.3,10.3,0,0,0-7.743,2.933,10.3,10.3,0,0,0-3.082,7.685,10.616,10.616,0,0,0,3.246,7.83,10.616,10.616,0,0,0,7.943,2.958c6.052,0,8.479-3.671,10.084-6.264ZM119.12-7.371h-5.8c.124-2.263,1.235-3.616,3.086-3.616s2.635,1.021,2.713,3.611Zm39.3,5.426-3.457-1.564c-.659,1.152-3.671,6.5-9.1,6.5-3.169,0-7.9-2.346-7.9-10.825,0-6.832,2.8-11.114,7.244-11.114a8.252,8.252,0,0,1,5.849,2.932,25.444,25.444,0,0,1,3.417,5.145l3.166-1.2-3.457-9.714h-2.841l-.329.946a16.326,16.326,0,0,0-6.862-1.484c-10.577,0-14.076,8.437-14.076,14.522a14.147,14.147,0,0,0,4.207,10.511A14.147,14.147,0,0,0,144.85,6.773a14.173,14.173,0,0,0,13.579-8.728Zm25.259,6.457-2.3-2.791c-.7.7-1.029.7-1.029.7-.782,0-.865-1.117-.865-2.3V-7.992c0-4.074-2.346-6.79-8.972-6.79-5.309,0-9.138,2.394-9.138,5.68a3.023,3.023,0,0,0,.87,2.188,3.023,3.023,0,0,0,2.175.9,3.444,3.444,0,0,0,2.593-1.117,2.932,2.932,0,0,0,.576-2.059c0-1.481,1.647-1.811,2.635-1.811,1.77,0,2.593.74,2.593,2.223v2.1a30.094,30.094,0,0,0-6.008,1.117Q160.632-3.71,160.632.98c0,3.375,2.635,5.638,6.543,5.638a11.442,11.442,0,0,0,6.543-2.1,6.106,6.106,0,0,0,4.733,2.1,7.911,7.911,0,0,0,5.222-2.1ZM172.811.725a4.658,4.658,0,0,1-3.251,1.436A1.891,1.891,0,0,1,167.626.1c0-1.728,1.605-2.841,5.187-3.5ZM202.766-11a3.683,3.683,0,0,0-1.048-2.679,3.683,3.683,0,0,0-2.656-1.108c-1.687,0-2.713.453-5.426,2.394v-2.016h-2.553l-6.42,1.194v3.334l.74.083c1.811.206,2.265.865,2.265,3.375V-.5c0,2.346-.249,2.758-1.811,3.128l-1.194.289V6.25h12.673V2.914l-1.184-.282c-1.564-.373-1.811-.782-1.811-3.128V-8.475a2.234,2.234,0,0,1,1.647-.659c1.235,0,1.522,1.277,3.54,1.277a3.105,3.105,0,0,0,2.3-.868,3.106,3.106,0,0,0,.948-2.268ZM225.646.355l-3.457-1.687c-1.605,2.394-3.292,3.5-5.392,3.5-3.211,0-4.981-2.263-4.981-6.383h13.335a11.847,11.847,0,0,0-1.064-6.008A9.894,9.894,0,0,0,215.2-14.8a10.3,10.3,0,0,0-7.743,2.933,10.3,10.3,0,0,0-3.082,7.685,10.62,10.62,0,0,0,3.251,7.828,10.621,10.621,0,0,0,7.944,2.956c6.05.016,8.477-3.651,10.083-6.245Zm-7.778-7.734h-5.8C212.188-9.642,213.3-11,215.15-11s2.635,1.021,2.713,3.611Z" transform="translate(65.307 31.858)" fill="#fff"/>
        <path id="Path_394" data-name="Path 394" d="M6.655,2.541A7.368,7.368,0,0,0,11.5.741v-4.93H6.576v2.156H9.087V-.409A3.95,3.95,0,0,1,6.737.272,3.4,3.4,0,0,1,4.234-.78,3.4,3.4,0,0,1,3.3-3.333v-.032A3.409,3.409,0,0,1,6.564-6.9,4.18,4.18,0,0,1,9.531-5.744l1.567-1.9A6.237,6.237,0,0,0,6.639-9.2,5.827,5.827,0,0,0,2.423-7.521,5.827,5.827,0,0,0,.69-3.328V-3.3A5.672,5.672,0,0,0,2.391.931a5.672,5.672,0,0,0,4.264,1.61Zm6.988-.195h2.464V-.864c0-2.092,1.005-3.064,2.643-3.064h.124V-6.509A2.689,2.689,0,0,0,16.1-4.594V-6.341H13.644Zm10.8.195a4.561,4.561,0,0,0,3.315-1.266,4.561,4.561,0,0,0,1.4-3.257v-.037A4.518,4.518,0,0,0,27.77-5.256a4.518,4.518,0,0,0-3.294-1.253,4.561,4.561,0,0,0-3.315,1.266,4.561,4.561,0,0,0-1.4,3.257v.032a4.518,4.518,0,0,0,1.39,3.24,4.518,4.518,0,0,0,3.3,1.254ZM24.475.42A2.309,2.309,0,0,1,22.825-.3a2.309,2.309,0,0,1-.638-1.684v-.04a2.218,2.218,0,0,1,.6-1.68A2.218,2.218,0,0,1,24.44-4.39a2.309,2.309,0,0,1,1.65.717,2.309,2.309,0,0,1,.638,1.684v.032a2.218,2.218,0,0,1-.6,1.684,2.218,2.218,0,0,1-1.65.689ZM33.83,2.508a3.1,3.1,0,0,0,2.544-1.395V2.345h2.464v-8.69H36.374V-1.5c0,1.168-.584,1.767-1.54,1.767s-1.5-.6-1.5-1.767V-6.345H30.885V-.717A2.834,2.834,0,0,0,31.6,1.589a2.834,2.834,0,0,0,2.233.919ZM41.046,4.94H43.51V1.212a3.337,3.337,0,0,0,2.713,1.3A4.073,4.073,0,0,0,49.184,1.13a4.073,4.073,0,0,0,1-3.111v-.037a4.09,4.09,0,0,0-1-3.106,4.09,4.09,0,0,0-2.954-1.385A3.133,3.133,0,0,0,43.51-5.1V-6.346H41.046ZM45.587.416a2.2,2.2,0,0,1-1.566-.75,2.2,2.2,0,0,1-.544-1.649V-2.02a2.2,2.2,0,0,1,.539-1.652,2.2,2.2,0,0,1,1.569-.748,2.217,2.217,0,0,1,1.572.747A2.217,2.217,0,0,1,47.7-2.02v.032a2.207,2.207,0,0,1-.544,1.66,2.207,2.207,0,0,1-1.58.744ZM61.153,2.508C63.6,2.508,65.32,1.244,65.32-1v-.045c0-1.979-1.3-2.79-3.6-3.406-1.965-.512-2.443-.723-2.443-1.491v-.032c0-.568.479-.989,1.459-.989a5.325,5.325,0,0,1,2.951,1.117l1.3-1.882a6.57,6.57,0,0,0-4.216-1.436,3.541,3.541,0,0,0-2.743.832,3.541,3.541,0,0,0-1.229,2.59v.032c0,2.234,1.459,2.9,3.761,3.469,1.9.471,2.287.811,2.287,1.436v.029c0,.665-.6,1.071-1.637,1.071a5.238,5.238,0,0,1-3.388-1.379L56.336.692a7.11,7.11,0,0,0,4.816,1.816Zm8.937-.016a3.634,3.634,0,0,0,1.945-.5V.012A2.424,2.424,0,0,1,70.819.32c-.535,0-.8-.276-.8-.843V-4.24h2.043v-2.1H70.021V-8.566H67.555v2.221H66.518v2.1h1.037V-.124c0,2.016,1.039,2.616,2.529,2.616Zm3.793-.145h2.469V-.864c0-2.092,1.005-3.064,2.643-3.064h.124V-6.509a2.689,2.689,0,0,0-2.772,1.915V-6.341H73.88Zm8.836.16a3.318,3.318,0,0,0,2.627-1.1v.94H87.73V-2.7a3.789,3.789,0,0,0-.94-2.772,3.945,3.945,0,0,0-2.938-.97,7.9,7.9,0,0,0-3.367.7L81.1-3.863a6.034,6.034,0,0,1,2.394-.471c1.232,0,1.87.551,1.87,1.6v.145a6.174,6.174,0,0,0-2.115-.37c-2.059,0-3.5.892-3.5,2.772v.035a2.679,2.679,0,0,0,.892,1.99,2.679,2.679,0,0,0,2.075.667ZM83.468.8c-.8,0-1.345-.389-1.345-1.053V-.282c0-.779.648-1.2,1.7-1.2a3.88,3.88,0,0,1,1.574.319v.437C85.4.183,84.634.8,83.466.8Zm9.24,1.687a3.634,3.634,0,0,0,1.945-.5V.012A2.424,2.424,0,0,1,93.437.32c-.535,0-.8-.276-.8-.843V-4.24h2.043v-2.1H92.639V-8.566H90.175v2.221H89.133v2.1h1.037V-.124c0,2.016,1.042,2.616,2.534,2.616Zm7.67.048A4.323,4.323,0,0,0,103.928.917L102.518-.331a2.873,2.873,0,0,1-2.108.892,2.016,2.016,0,0,1-2.121-1.7h6.048c.016-.243.032-.453.032-.648A4.231,4.231,0,0,0,103.313-5.1a4.231,4.231,0,0,0-3.182-1.4,4.326,4.326,0,0,0-3.112,1.347,4.326,4.326,0,0,0-1.186,3.177v.032a4.347,4.347,0,0,0,1.286,3.236,4.347,4.347,0,0,0,3.249,1.253ZM98.249-2.68c.195-1.117.843-1.848,1.882-1.848a1.864,1.864,0,0,1,1.832,1.848Zm11.837,7.66a5.049,5.049,0,0,0,3.742-1.168,4.689,4.689,0,0,0,1.1-3.423V-6.346H112.47v1.135A3.511,3.511,0,0,0,109.664-6.5a3.83,3.83,0,0,0-2.81,1.187,3.83,3.83,0,0,0-1.048,2.873v.032A3.808,3.808,0,0,0,106.847.46a3.808,3.808,0,0,0,2.817,1.183A3.351,3.351,0,0,0,112.5.238V.66c0,1.556-.8,2.37-2.48,2.37a5.672,5.672,0,0,1-2.928-.8l-.844,1.838a8.2,8.2,0,0,0,3.836.9Zm.292-5.389a1.968,1.968,0,0,1-1.5-.538,1.968,1.968,0,0,1-.61-1.473v-.032a2,2,0,0,1,.619-1.468,2,2,0,0,1,1.489-.549,2,2,0,0,1,1.5.549,2,2,0,0,1,.622,1.467v.032a2,2,0,0,1-.622,1.467,2,2,0,0,1-1.5.544Zm6.81-6.891h2.595V-9.49h-2.595Zm.065,9.647h2.464V-6.345h-2.464Zm8.9.195A4.323,4.323,0,0,0,129.7.92L128.294-.328a2.873,2.873,0,0,1-2.108.892,2.016,2.016,0,0,1-2.118-1.7h6.048c.016-.243.032-.453.032-.648A4.231,4.231,0,0,0,129.1-5.1a4.231,4.231,0,0,0-3.18-1.405A4.326,4.326,0,0,0,122.8-5.159a4.326,4.326,0,0,0-1.186,3.177v.032A4.347,4.347,0,0,0,122.9,1.287a4.347,4.347,0,0,0,3.249,1.253ZM124.03-2.68c.195-1.117.843-1.848,1.882-1.848a1.864,1.864,0,0,1,1.827,1.848Zm10.992,5.188c1.882,0,3.324-.873,3.324-2.806V-.33c0-1.6-1.411-2.19-2.627-2.577-.94-.292-1.767-.584-1.767-1.037v-.032c0-.34.308-.6.908-.6a5.148,5.148,0,0,1,2.351.811l.94-1.7a6.064,6.064,0,0,0-3.243-1.005,2.841,2.841,0,0,0-2.2.675,2.841,2.841,0,0,0-.978,2.075v.032c0,1.687,1.372,2.269,2.595,2.611.958.308,1.8.471,1.8,1.005v.032c0,.389-.319.648-1.037.648a4.8,4.8,0,0,1-2.743-1.037l-1.053,1.621A6.088,6.088,0,0,0,135.026,2.5Z" transform="translate(95.941 63.509)" fill="#fff"/>
      </g>
    </g>
  </g>
</svg>
