<svg xmlns="http://www.w3.org/2000/svg" xmlns:xlink="http://www.w3.org/1999/xlink" width="40" height="40" viewBox="0 0 40 40">
  <defs>
    <clipPath id="clip-path">
      <rect id="Rectangle_445" data-name="Rectangle 445" width="18" height="18" fill="#ce8045"/>
    </clipPath>
  </defs>
  <g id="Membership_Benefits" data-name="Membership Benefits" transform="translate(0 8572)">
    <g id="Rectangle_316" data-name="Rectangle 316" transform="translate(0 -8572)" fill="rgba(206,128,69,0.2)" stroke="rgba(158,51,35,0.2)" stroke-width="1">
      <rect width="40" height="40" rx="8" stroke="none"/>
      <rect x="0.5" y="0.5" width="39" height="39" rx="7.5" fill="none"/>
    </g>
    <g id="Group_858" data-name="Group 858" transform="translate(8 -8564)">
      <rect id="Rectangle_330" data-name="Rectangle 330" width="24" height="24" fill="none"/>
      <g id="fi-rr-trophy" transform="translate(2.625 3)" clip-path="url(#clip-path)">
        <path id="Path_366" data-name="Path 366" d="M11.318,12C16.246,11.973,18,9.363,18,7.125a2.625,2.625,0,0,0-2.073-2.564c.1-.29.191-.556.25-.758a2.915,2.915,0,0,0-.469-2.594A2.984,2.984,0,0,0,13.3,0H4.7A2.984,2.984,0,0,0,2.293,1.209,2.915,2.915,0,0,0,1.823,3.8c.059.2.15.468.25.758A2.625,2.625,0,0,0,0,7.125C0,9.363,1.754,11.973,6.682,12a3.8,3.8,0,0,1,.068.691V15a1.412,1.412,0,0,1-1.5,1.5H4.5a.75.75,0,0,0,0,1.5h9a.75.75,0,0,0,0-1.5h-.744A1.414,1.414,0,0,1,11.25,15V12.69A3.791,3.791,0,0,1,11.318,12Zm4.057-6A1.125,1.125,0,0,1,16.5,7.125c0,1.526-1.207,3.15-4.527,3.352a3.634,3.634,0,0,1,.572-.616,11.35,11.35,0,0,0,2.8-3.869C15.352,5.993,15.362,6,15.375,6ZM1.5,7.125A1.125,1.125,0,0,1,2.625,6c.013,0,.023-.007.035-.008a11.349,11.349,0,0,0,2.8,3.869,3.635,3.635,0,0,1,.572.616C2.707,10.275,1.5,8.65,1.5,7.125ZM7.885,16.5A3.06,3.06,0,0,0,8.25,15V12.691A5.2,5.2,0,0,0,6.427,8.719,11.5,11.5,0,0,1,3.262,3.375,1.425,1.425,0,0,1,3.494,2.1,1.5,1.5,0,0,1,4.7,1.5H13.3a1.5,1.5,0,0,1,1.209.608,1.425,1.425,0,0,1,.232,1.271,11.5,11.5,0,0,1-3.165,5.342A5.2,5.2,0,0,0,9.75,12.69V15a3.06,3.06,0,0,0,.365,1.5Z" transform="translate(0 0)" fill="#ce8045"/>
      </g>
    </g>
  </g>
</svg>
