<svg xmlns="http://www.w3.org/2000/svg" width="129.574" height="109.313" viewBox="0 0 129.574 109.313">
  <g id="Adult_talking_cell_phone-rafiki_3_" data-name="Adult talking cell phone-rafiki (3)" transform="translate(0 -45.3)">
    <g id="freepik--background-complete--inject-91" transform="translate(0 45.3)">
      <rect id="Rectangle_710" data-name="Rectangle 710" width="129.574" height="0.065" transform="translate(0 87.359)" fill="#ebebeb"/>
      <rect id="Rectangle_711" data-name="Rectangle 711" width="8.583" height="0.065" transform="translate(108.007 91.528)" fill="#ebebeb"/>
      <rect id="Rectangle_712" data-name="Rectangle 712" width="2.252" height="0.065" transform="translate(83.583 92.233)" fill="#ebebeb"/>
      <rect id="Rectangle_713" data-name="Rectangle 713" width="4.973" height="0.065" transform="translate(102.775 89.123)" fill="#ebebeb"/>
      <rect id="Rectangle_714" data-name="Rectangle 714" width="11.193" height="0.065" transform="translate(13.595 89.559)" fill="#ebebeb"/>
      <rect id="Rectangle_715" data-name="Rectangle 715" width="1.64" height="0.065" transform="translate(27.096 89.559)" fill="#ebebeb"/>
      <rect id="Rectangle_716" data-name="Rectangle 716" width="24.277" height="0.065" transform="translate(34.07 90.652)" fill="#ebebeb"/>
      <path id="Path_971" data-name="Path 971" d="M89.726,128.287H39.687a1.48,1.48,0,0,1-1.477-1.48V56.467A1.48,1.48,0,0,1,39.687,55H89.726a1.48,1.48,0,0,1,1.48,1.48v70.327A1.48,1.48,0,0,1,89.726,128.287ZM39.687,55.052a1.415,1.415,0,0,0-1.412,1.415v70.34a1.415,1.415,0,0,0,1.412,1.415H89.726a1.418,1.418,0,0,0,1.415-1.415V56.467a1.418,1.418,0,0,0-1.415-1.415Z" transform="translate(-28.308 -52.486)" fill="#ebebeb"/>
      <path id="Path_972" data-name="Path 972" d="M306.021,128.287H255.98a1.482,1.482,0,0,1-1.48-1.48V56.467A1.482,1.482,0,0,1,255.98,55h50.041a1.48,1.48,0,0,1,1.475,1.467v70.34A1.48,1.48,0,0,1,306.021,128.287ZM255.98,55.052a1.418,1.418,0,0,0-1.415,1.415v70.34a1.418,1.418,0,0,0,1.415,1.415h50.041a1.418,1.418,0,0,0,1.415-1.415V56.467a1.418,1.418,0,0,0-1.415-1.415Z" transform="translate(-188.547 -52.486)" fill="#ebebeb"/>
      <circle id="Ellipse_59" data-name="Ellipse 59" cx="5.714" cy="5.714" r="5.714" transform="translate(6.974 43.879)" fill="#a0bfd7"/>
      <path id="Path_973" data-name="Path 973" d="M42.762,228.442a2.612,2.612,0,0,0-.777-1.855l-.9-.9-.067-.065-.974-.974a2.633,2.633,0,0,0-3.711,0,2.973,2.973,0,0,0-.21.241l1.607,1.609.879-.879a.448.448,0,0,1,.632,0l.9.886.065.065.819.819a.448.448,0,0,1,0,.632l-.879.878,1.607,1.607a2.545,2.545,0,0,0,1.008-2.073Z" transform="translate(-26.76 -177.6)" fill="#fafafa"/>
      <circle id="Ellipse_60" data-name="Ellipse 60" cx="7.396" cy="7.396" r="7.396" transform="translate(32.956 6.709)" fill="#a0bfd7"/>
      <rect id="Rectangle_717" data-name="Rectangle 717" width="7.264" height="5.118" rx="1.8" transform="translate(35.651 11.545)" fill="#fafafa"/>
      <path id="Path_974" data-name="Path 974" d="M169.42,97.015l-1.55-.557v-1.8l1.55-.56Z" transform="translate(-124.367 -81.454)" fill="#fafafa"/>
      <circle id="Ellipse_61" data-name="Ellipse 61" cx="6.958" cy="6.958" r="6.958" transform="translate(107.546 31.94)" fill="#a0bfd7"/>
      <rect id="Rectangle_718" data-name="Rectangle 718" width="6.831" height="4.812" rx="1.8" transform="translate(110.081 36.491)" fill="#fafafa"/>
      <path id="Path_975" data-name="Path 975" d="M454.739,192.852l-1.459-.526v-1.692l1.459-.523Z" transform="translate(-335.814 -152.583)" fill="#fafafa"/>
      <circle id="Ellipse_62" data-name="Ellipse 62" cx="8.373" cy="8.373" r="8.373" transform="translate(82.471)" fill="#a0bfd7"/>
      <rect id="Rectangle_719" data-name="Rectangle 719" width="2.107" height="3.473" transform="translate(85.988 6.637)" fill="#fafafa"/>
      <path id="Path_976" data-name="Path 976" d="M342.231,71.143l-3.651-1.91V66.1l3.651-1.91Z" transform="translate(-250.838 -59.295)" fill="#fafafa"/>
      <rect id="Rectangle_720" data-name="Rectangle 720" width="2.809" height="0.412" transform="translate(92.894 8.166)" fill="#fafafa"/>
      <rect id="Rectangle_721" data-name="Rectangle 721" width="2.827" height="0.412" transform="matrix(0.882, -0.472, 0.472, 0.882, 92.385, 5.794)" fill="#fafafa"/>
      <rect id="Rectangle_722" data-name="Rectangle 722" width="0.412" height="2.827" transform="translate(92.389 10.958) rotate(-61.84)" fill="#fafafa"/>
      <circle id="Ellipse_63" data-name="Ellipse 63" cx="5.66" cy="5.66" r="5.66" transform="translate(101.515 62.779) rotate(-9.22)" fill="#a0bfd7"/>
      <rect id="Rectangle_723" data-name="Rectangle 723" width="2.625" height="4.338" rx="1.313" transform="translate(106.693 64.395)" fill="#fafafa"/>
      <path id="Path_977" data-name="Path 977" d="M410.968,305.2a2.034,2.034,0,0,1-2.032-2.032v-.806a.181.181,0,1,1,.36,0v.806a1.671,1.671,0,0,0,3.34,0v-.806a.181.181,0,0,1,.363,0v.806A2.034,2.034,0,0,1,410.968,305.2Z" transform="translate(-302.961 -235.593)" fill="#fafafa"/>
      <path id="Path_978" data-name="Path 978" d="M416.261,313.962a.181.181,0,0,1-.181-.181v-1.109a.181.181,0,0,1,.363,0v1.109A.181.181,0,0,1,416.261,313.962Z" transform="translate(-308.254 -243.248)" fill="#fafafa"/>
      <path id="Path_979" data-name="Path 979" d="M410.43,299.439a.174.174,0,0,1-.127-.054l-6.277-6.279a.183.183,0,0,1,.259-.259l6.277,6.277a.179.179,0,0,1,0,.259A.174.174,0,0,1,410.43,299.439Z" transform="translate(-299.284 -228.656)" fill="#fafafa"/>
      <circle id="Ellipse_64" data-name="Ellipse 64" cx="5.997" cy="5.997" r="5.997" transform="translate(41.577 48.59) rotate(-13.28)" fill="#a0bfd7"/>
      <rect id="Rectangle_724" data-name="Rectangle 724" width="2.781" height="4.597" rx="1.39" transform="translate(47.401 49.795)" fill="#fafafa"/>
      <path id="Path_980" data-name="Path 980" d="M182.249,249.682a2.112,2.112,0,0,1-2.109-2.109v-.855a.148.148,0,0,1,.148-.148.15.15,0,0,1,.148.148v.855a1.814,1.814,0,0,0,3.628,0v-.855a.15.15,0,0,1,.148-.148.148.148,0,0,1,.148.148v.855A2.112,2.112,0,0,1,182.249,249.682Z" transform="translate(-133.457 -194.411)" fill="#fafafa"/>
      <path id="Path_981" data-name="Path 981" d="M187.858,258.9a.148.148,0,0,1-.148-.148v-1.179a.148.148,0,0,1,.148-.148.15.15,0,0,1,.148.148v1.177a.15.15,0,0,1-.148.15Z" transform="translate(-139.065 -202.457)" fill="#fafafa"/>
      <path id="Path_982" data-name="Path 982" d="M181.642,243.539a.142.142,0,0,1-.1-.041l-6.663-6.652a.148.148,0,0,1,.21-.21l6.65,6.652a.15.15,0,0,1,0,.21.148.148,0,0,1-.093.041Z" transform="translate(-129.525 -187.019)" fill="#fafafa"/>
    </g>
    <g id="freepik--Shadow--inject-91" transform="translate(14.012 137.904)">
      <ellipse id="freepik--path--inject-91" cx="50.246" cy="8.355" rx="50.246" ry="8.355" fill="rgba(225,179,143,0.19)"/>
    </g>
    <g id="freepik--Icon--inject-91" transform="translate(48.349 57.661)">
      <path id="Path_983" data-name="Path 983" d="M203.448,93a16.878,16.878,0,1,0,16.878,16.877A16.878,16.878,0,0,0,203.448,93Zm9.169,24.412a7.774,7.774,0,0,1-10.959,0l-2.879-2.882-.194-.194-2.669-2.677a7.774,7.774,0,0,1,0-10.959,9.33,9.33,0,0,1,.718-.622l4.75,4.75-2.591,2.591a1.319,1.319,0,0,0,0,1.871l2.415,2.415.192.194,2.63,2.628a1.322,1.322,0,0,0,1.868,0l2.591-2.591,4.75,4.75a8.828,8.828,0,0,1-.622.718Z" transform="translate(-186.57 -93)" fill="#ce8045"/>
      <path id="Path_984" data-name="Path 984" d="M203.448,93a16.878,16.878,0,1,0,16.878,16.877A16.878,16.878,0,0,0,203.448,93Zm9.169,24.412a7.774,7.774,0,0,1-10.959,0l-2.879-2.882-.194-.194-2.669-2.677a7.774,7.774,0,0,1,0-10.959,9.33,9.33,0,0,1,.718-.622l4.75,4.75-2.591,2.591a1.319,1.319,0,0,0,0,1.871l2.415,2.415.192.194,2.63,2.628a1.322,1.322,0,0,0,1.868,0l2.591-2.591,4.75,4.75a8.828,8.828,0,0,1-.622.718Z" transform="translate(-186.57 -93)" fill="#fff" opacity="0.4"/>
    </g>
    <g id="freepik--speech-bubble-4--inject-91" transform="translate(94.07 66.778)">
      <path id="Path_985" data-name="Path 985" d="M366.193,128.18h9.316a3.2,3.2,0,0,1,3.2,3.2v3.866a3.2,3.2,0,0,1-3.2,3.2H369.1l-2.112,2-.044-2h-.752a3.2,3.2,0,0,1-3.193-3.2v-3.866a3.2,3.2,0,0,1,3.193-3.2Z" transform="translate(-363 -128.18)" fill="#ce8045"/>
      <g id="Group_1367" data-name="Group 1367" transform="translate(0 0)" opacity="0.4">
        <path id="Path_986" data-name="Path 986" d="M366.193,128.18h9.316a3.2,3.2,0,0,1,3.2,3.2v3.866a3.2,3.2,0,0,1-3.2,3.2H369.1l-2.112,2-.044-2h-.752a3.2,3.2,0,0,1-3.193-3.2v-3.866a3.2,3.2,0,0,1,3.193-3.2Z" transform="translate(-363 -128.18)" fill="#fff"/>
      </g>
      <path id="Path_987" data-name="Path 987" d="M407.3,145.3a.645.645,0,1,0,.189-.459A.648.648,0,0,0,407.3,145.3Z" transform="translate(-395.82 -140.382)" fill="#fff"/>
      <circle id="Ellipse_65" data-name="Ellipse 65" cx="0.648" cy="0.648" r="0.648" transform="translate(8.627 4.268)" fill="#fff"/>
      <path id="Path_988" data-name="Path 988" d="M385.29,145.3a.645.645,0,1,0,.189-.459A.648.648,0,0,0,385.29,145.3Z" transform="translate(-379.514 -140.382)" fill="#fff"/>
      <circle id="Ellipse_66" data-name="Ellipse 66" cx="0.648" cy="0.648" r="0.648" transform="translate(2.926 4.268)" fill="#fff"/>
    </g>
    <g id="freepik--speech-bubble-3--inject-91" transform="translate(55.74 89.516)">
      <path id="Path_989" data-name="Path 989" d="M226.062,215.92H217.9a2.807,2.807,0,0,0-2.807,2.807v3.39a2.807,2.807,0,0,0,2.807,2.807h5.616l1.85,1.752.039-1.752h.661a2.807,2.807,0,0,0,2.807-2.807v-3.39A2.807,2.807,0,0,0,226.062,215.92Z" transform="translate(-215.09 -215.92)" fill="#263238"/>
      <g id="Group_1368" data-name="Group 1368" opacity="0.4">
        <path id="Path_990" data-name="Path 990" d="M226.062,215.92H217.9a2.807,2.807,0,0,0-2.807,2.807v3.39a2.807,2.807,0,0,0,2.807,2.807h5.616l1.85,1.752.039-1.752h.661a2.807,2.807,0,0,0,2.807-2.807v-3.39A2.807,2.807,0,0,0,226.062,215.92Z" transform="translate(-215.09 -215.92)" fill="#fff"/>
      </g>
      <path id="Path_991" data-name="Path 991" d="M226.155,230.918a.568.568,0,1,1-.568-.568A.568.568,0,0,1,226.155,230.918Z" transform="translate(-222.447 -226.611)" fill="#fff"/>
      <circle id="Ellipse_67" data-name="Ellipse 67" cx="0.568" cy="0.568" r="0.568" transform="translate(5.072 3.739)" fill="#fff"/>
      <path id="Path_992" data-name="Path 992" d="M245.435,230.918a.568.568,0,1,1-.568-.568A.568.568,0,0,1,245.435,230.918Z" transform="translate(-236.73 -226.611)" fill="#fff"/>
      <circle id="Ellipse_68" data-name="Ellipse 68" cx="0.568" cy="0.568" r="0.568" transform="translate(10.07 3.739)" fill="#fff"/>
    </g>
    <g id="freepik--speech-bubble-2--inject-91" transform="translate(41.541 107.249)">
      <path id="Path_993" data-name="Path 993" d="M170.806,284.35h-7.818a2.687,2.687,0,0,0-2.687,2.69v3.242a2.687,2.687,0,0,0,2.687,2.69h5.377l1.773,1.677.036-1.677h.632a2.687,2.687,0,0,0,2.687-2.69V287.04A2.687,2.687,0,0,0,170.806,284.35Z" transform="translate(-160.3 -284.35)" fill="#ce8045"/>
      <path id="Path_994" data-name="Path 994" d="M170.888,298.714a.542.542,0,1,1-.158-.385A.544.544,0,0,1,170.888,298.714Z" transform="translate(-167.338 -294.589)" fill="#fff"/>
      <circle id="Ellipse_69" data-name="Ellipse 69" cx="0.544" cy="0.544" r="0.544" transform="translate(4.856 3.581)" fill="#fff"/>
      <path id="Path_995" data-name="Path 995" d="M189.358,298.714a.542.542,0,1,1-.159-.386A.544.544,0,0,1,189.358,298.714Z" transform="translate(-181.022 -294.589)" fill="#fff"/>
      <circle id="Ellipse_70" data-name="Ellipse 70" cx="0.544" cy="0.544" r="0.544" transform="translate(9.64 3.581)" fill="#fff"/>
    </g>
    <g id="freepik--speech-bubble-1--inject-91" transform="translate(17.363 62.738)">
      <path id="Path_996" data-name="Path 996" d="M77.625,112.59h-7.9A2.716,2.716,0,0,0,67,115.308v3.281a2.716,2.716,0,0,0,2.718,2.718h5.442l1.791,1.7.039-1.7h.635a2.718,2.718,0,0,0,2.721-2.718v-3.281A2.718,2.718,0,0,0,77.625,112.59Z" transform="translate(-67 -112.59)" fill="#263238"/>
      <path id="Path_997" data-name="Path 997" d="M77.749,127.119a.549.549,0,1,1-.549-.549A.549.549,0,0,1,77.749,127.119Z" transform="translate(-74.149 -122.947)" fill="#fff"/>
      <circle id="Ellipse_71" data-name="Ellipse 71" cx="0.549" cy="0.549" r="0.549" transform="translate(4.921 3.623)" fill="#fff"/>
      <path id="Path_998" data-name="Path 998" d="M96.429,127.119a.549.549,0,1,1-.549-.549A.549.549,0,0,1,96.429,127.119Z" transform="translate(-87.988 -122.947)" fill="#fff"/>
      <circle id="Ellipse_72" data-name="Ellipse 72" cx="0.549" cy="0.549" r="0.549" transform="translate(9.762 3.623)" fill="#fff"/>
    </g>
    <g id="freepik--character-4--inject-91" transform="translate(83.006 81.455)">
      <path id="Path_999" data-name="Path 999" d="M356.937,279.49c-.974-3.5-16.458.7-16.458.7a30.472,30.472,0,0,0-.472,7.046h0c-.194,4.24.759,8.155.969,12.229-.822,5.522.212,13.351.212,13.351l3.765.477s2.236-8.858,3.141-13.605c.223-1.171.482-2.607.744-4.092a39.547,39.547,0,0,1,1.138,4.177c-.054,5.582,2.042,13.2,2.042,13.2l3.794-.044s1-9.083,1.244-13.908c.168-3.327.259-8.925.314-11.825A23.508,23.508,0,0,0,356.937,279.49Z" transform="translate(-334.855 -253.924)" fill="#263238"/>
      <path id="Path_1000" data-name="Path 1000" d="M356.937,279.49c-.974-3.5-16.458.7-16.458.7a30.472,30.472,0,0,0-.472,7.046h0c-.194,4.24.759,8.155.969,12.229-.822,5.522.212,13.351.212,13.351l3.765.477s2.236-8.858,3.141-13.605c.223-1.171.482-2.607.744-4.092a39.547,39.547,0,0,1,1.138,4.177c-.054,5.582,2.042,13.2,2.042,13.2l3.794-.044s1-9.083,1.244-13.908c.168-3.327.259-8.925.314-11.825A23.508,23.508,0,0,0,356.937,279.49Z" transform="translate(-334.855 -253.924)" fill="#fff" opacity="0.5"/>
      <path id="Path_1001" data-name="Path 1001" d="M390.242,406.63l-3.312.086.339,3.908,2.768-.067Z" transform="translate(-369.664 -349.148)" fill="#d9877c"/>
      <path id="Path_1002" data-name="Path 1002" d="M390.234,406.63l-3.314.088.192,2.187,3.009-.075Z" transform="translate(-369.656 -349.148)" opacity="0.2"/>
      <path id="Path_1003" data-name="Path 1003" d="M384.594,407.948l4.1-.036a.145.145,0,0,0,.143-.127l.184-1.506a.14.14,0,0,0-.15-.161l-4.569.308a.148.148,0,0,0-.13.176l.282,1.234a.137.137,0,0,0,.14.111Z" transform="translate(-367.618 -348.768)" fill="#263238"/>
      <path id="Path_1004" data-name="Path 1004" d="M386.277,419.616a.158.158,0,0,1,.2-.13,6.768,6.768,0,0,0,3-.036.5.5,0,0,1,.384.078,7.846,7.846,0,0,0,2.332.726,1.86,1.86,0,0,1,.083,1H385.93A11.239,11.239,0,0,0,386.277,419.616Z" transform="translate(-368.923 -358.637)" fill="#263238"/>
      <path id="Path_1005" data-name="Path 1005" d="M348.879,407.514l-3.289-.394-.231,3.916,2.75.332Z" transform="translate(-338.867 -349.511)" fill="#d9877c"/>
      <path id="Path_1006" data-name="Path 1006" d="M349.161,407.514l-3.291-.394-.13,2.192,2.991.36Z" transform="translate(-339.148 -349.511)" opacity="0.2"/>
      <path id="Path_1007" data-name="Path 1007" d="M343.331,408.044l4.069.518a.143.143,0,0,0,.155-.1l.391-1.469a.143.143,0,0,0-.13-.179l-4.566-.321a.143.143,0,0,0-.153.156l.109,1.262a.14.14,0,0,0,.124.137Z" transform="translate(-337.191 -349.043)" fill="#263238"/>
      <path id="Path_1008" data-name="Path 1008" d="M344,419.616a.155.155,0,0,1,.194-.13,6.78,6.78,0,0,0,3.006-.036.49.49,0,0,1,.381.078,7.868,7.868,0,0,0,2.332.726,1.878,1.878,0,0,1,.086,1H343.65A11.069,11.069,0,0,0,344,419.616Z" transform="translate(-337.6 -358.638)" fill="#263238"/>
      <path id="Path_1009" data-name="Path 1009" d="M384.594,407.948l4.1-.036a.145.145,0,0,0,.143-.127l.184-1.506a.14.14,0,0,0-.15-.161l-4.569.308a.148.148,0,0,0-.13.176l.282,1.234a.137.137,0,0,0,.14.111Z" transform="translate(-367.618 -348.768)" fill="#fff" opacity="0.6"/>
      <path id="Path_1010" data-name="Path 1010" d="M343.331,408.044l4.069.518a.143.143,0,0,0,.155-.1l.391-1.469a.143.143,0,0,0-.13-.179l-4.566-.321a.143.143,0,0,0-.153.156l.109,1.262a.14.14,0,0,0,.124.137Z" transform="translate(-337.191 -349.043)" fill="#fff" opacity="0.6"/>
      <path id="Path_1011" data-name="Path 1011" d="M340.246,290.362l-.306.977a56.228,56.228,0,0,0,9.267,2.537l1.555-1.381,1.125,1.381s4.317-.586,5.753-1.757l-.35-2.229Z" transform="translate(-334.851 -262.66)" fill="#ce8045"/>
      <path id="Path_1012" data-name="Path 1012" d="M340.246,290.362l-.306.977a56.228,56.228,0,0,0,9.267,2.537l1.555-1.381,1.125,1.381s4.317-.586,5.753-1.757l-.35-2.229Z" transform="translate(-334.851 -262.66)" fill="#fff" opacity="0.5"/>
      <path id="Path_1013" data-name="Path 1013" d="M377.241,211.709a15.711,15.711,0,0,0,6.676-.065l-.91.741a1.612,1.612,0,0,0,.029,1.855c.054.041.052,0,.021-.031a1.1,1.1,0,0,0-.158-.174,37.862,37.862,0,0,0-4.315-2.677,1.278,1.278,0,0,1,.731-2.363,16.942,16.942,0,0,1,1.944.244,15.883,15.883,0,0,1,2.918.793c1.342.57,2.591,1.2,2.983,2.9a2.624,2.624,0,0,1-1.389,2.851,14.854,14.854,0,0,1-9.726.809,2.518,2.518,0,0,1,1.187-4.893Z" transform="translate(-360.216 -202.729)" fill="#ce8045"/>
      <path id="Path_1014" data-name="Path 1014" d="M385.8,230.425c-.365.047-.728.083-1.088.1s-.793.034-1.189.031-.79-.016-1.187-.052-.793-.07-1.192-.135a12.014,12.014,0,0,1-1.244-.259,2.4,2.4,0,0,1-.518-.2,8.046,8.046,0,0,1,.777-2.687A9.594,9.594,0,0,1,385.8,230.425Z" transform="translate(-364.07 -216.239)" opacity="0.2"/>
      <path id="Path_1015" data-name="Path 1015" d="M381.3,202.773l-.951,1.037c-1.316.658-1.868-1.182-1.868-1.182l-.923-1.112a.744.744,0,0,1,.091-.959l.658-.723a.777.777,0,0,1,1.073-.132l.946.915a1.534,1.534,0,0,1,.417.619Z" transform="translate(-362.62 -195.728)" fill="#ebb376"/>
      <path id="Path_1016" data-name="Path 1016" d="M386.963,211.05l-.713-.386a9.269,9.269,0,0,0,1.42-2.278l1.005-.1A3.654,3.654,0,0,1,386.963,211.05Z" transform="translate(-369.16 -202.207)" fill="#ce8045"/>
      <path id="Path_1017" data-name="Path 1017" d="M386.963,211.05l-.713-.386a9.269,9.269,0,0,0,1.42-2.278l1.005-.1A3.654,3.654,0,0,1,386.963,211.05Z" transform="translate(-369.16 -202.207)" fill="#fff" opacity="0.5"/>
      <path id="Path_1018" data-name="Path 1018" d="M335.265,223.329c1.037,3.815,1.107,8.342,1.35,11.568,0,0-.593,2.1.021,3.18,0,0,10.524,3.167,17.314.277a22.19,22.19,0,0,0,.067-4.2c-.4-5.307-3-9.15-4.595-13.885a2.73,2.73,0,0,0-2.591-1.594,41.775,41.775,0,0,0-9.218.777,3.11,3.11,0,0,0-2.348,3.874Z" transform="translate(-331.304 -209.891)" fill="#ce8045"/>
      <path id="Path_1019" data-name="Path 1019" d="M358.02,213.115c-1.78.282-3.5-1.078-4.39-1.516.837-.731.3-1.91.412-2.558.049-.288.062-.472.062-.472l4.03,1.037a1.845,1.845,0,0,0,.039,1.228,1.633,1.633,0,0,1,.933.777.124.124,0,0,0,.013.026C359.409,212.221,359.774,212.828,358.02,213.115Z" transform="translate(-344.993 -202.414)" fill="#ebb376"/>
      <path id="Path_1020" data-name="Path 1020" d="M360.3,211.613c-1.731.941-4.584-1.057-5.077-2.591.049-.288.062-.472.062-.472l4.03,1.037a1.845,1.845,0,0,0,.039,1.228,1.633,1.633,0,0,1,.933.777A.123.123,0,0,0,360.3,211.613Z" transform="translate(-346.171 -202.399)" opacity="0.2"/>
      <path id="Path_1021" data-name="Path 1021" d="M366.066,224.518l-.739-.518-.987.632S364.97,225.153,366.066,224.518Z" transform="translate(-352.928 -213.846)" fill="#ce8045"/>
      <path id="Path_1022" data-name="Path 1022" d="M366.066,224.518l-.739-.518-.987.632S364.97,225.153,366.066,224.518Z" transform="translate(-352.928 -213.846)" fill="#fff" opacity="0.5"/>
      <path id="Path_1023" data-name="Path 1023" d="M352.887,218.35a4.633,4.633,0,0,0,3.369,1.464,2.983,2.983,0,0,0-1.3,1.967,3.716,3.716,0,0,1-2.851-2.944A1.037,1.037,0,0,1,352.887,218.35Z" transform="translate(-343.867 -209.66)" fill="#ce8045"/>
      <path id="Path_1024" data-name="Path 1024" d="M371,223.518l.829-.868,1.063.184A1.864,1.864,0,0,1,371,223.518Z" transform="translate(-357.862 -212.845)" fill="#ce8045"/>
      <path id="Path_1025" data-name="Path 1025" d="M371,223.518l.829-.868,1.063.184A1.864,1.864,0,0,1,371,223.518Z" transform="translate(-357.862 -212.845)" fill="#fff" opacity="0.5"/>
      <path id="Path_1026" data-name="Path 1026" d="M371.16,217.161a2.975,2.975,0,0,1,.777,1.4c.891.143,1.327,1.415,1.327,1.415a3.144,3.144,0,0,0-1.249-2.763A1.423,1.423,0,0,0,371.16,217.161Z" transform="translate(-357.981 -208.748)" fill="#ce8045"/>
      <path id="Path_1027" data-name="Path 1027" d="M352.887,218.35a4.633,4.633,0,0,0,3.369,1.464,2.983,2.983,0,0,0-1.3,1.967,3.716,3.716,0,0,1-2.851-2.944A1.037,1.037,0,0,1,352.887,218.35Z" transform="translate(-343.867 -209.66)" fill="#fff" opacity="0.8"/>
      <path id="Path_1028" data-name="Path 1028" d="M371.16,217.161a2.975,2.975,0,0,1,.777,1.4c.891.143,1.327,1.415,1.327,1.415a3.144,3.144,0,0,0-1.249-2.763A1.423,1.423,0,0,0,371.16,217.161Z" transform="translate(-357.981 -208.748)" fill="#fff" opacity="0.8"/>
      <path id="Path_1029" data-name="Path 1029" d="M335.59,236.67c1.037,3.815,1.107,8.342,1.35,11.568a10.767,10.767,0,0,0,3.11.171c2.851-.124,5.362-2.7,3.781-3.289-2.288-.845-5.678-1.814-5.678-1.814a17.766,17.766,0,0,0,.505-4.924Z" transform="translate(-331.628 -223.232)" opacity="0.2"/>
      <path id="Path_1030" data-name="Path 1030" d="M328.328,227.229c.109-.088.078-.065.062-.041l-.1.13a22.15,22.15,0,0,0-3.177,5.7,5.32,5.32,0,0,0-.137.583c0,.049-.013.062-.036.018a1.33,1.33,0,0,0-.145-.228c-.067-.1-.259-.233-.236-.184a5.3,5.3,0,0,0,1.92.679c1.389.308,2.949.5,4.455.736a1.27,1.27,0,0,1,.181,2.488,20.911,20.911,0,0,1-3.716.617c-4.19.363-7.907-.777-6.94-5.789a16.261,16.261,0,0,1,1.425-3.916,19.624,19.624,0,0,1,2.781-4.245,2.579,2.579,0,0,1,4.027-.091,2.514,2.514,0,0,1-.363,3.54Z" transform="translate(-320.303 -212.928)" fill="#ce8045"/>
      <path id="Path_1031" data-name="Path 1031" d="M360.353,268.32l-.433,1.257c.041,1.4,1.827,1.037,1.827,1.037l.93.171a.7.7,0,0,0,.762-.5l.308-.879a.733.733,0,0,0-.371-.954l-.777-.28a1.451,1.451,0,0,0-.7-.073Z" transform="translate(-349.653 -246.504)" fill="#ebb376"/>
      <path id="Path_1032" data-name="Path 1032" d="M357.605,267.35l.86.347a6.03,6.03,0,0,0-.855,2.332l-1.112.741S356.208,268.267,357.605,267.35Z" transform="translate(-347.1 -245.962)" fill="#ce8045"/>
      <path id="Path_1033" data-name="Path 1033" d="M357.605,267.35l.86.347a6.03,6.03,0,0,0-.855,2.332l-1.112.741S356.208,268.267,357.605,267.35Z" transform="translate(-347.1 -245.962)" fill="#fff" opacity="0.5"/>
      <path id="Path_1034" data-name="Path 1034" d="M372.685,195.529l1.41-1.524-.07-.078a1.094,1.094,0,0,1,.2,0,.163.163,0,0,1,.135.091l2.568,4.224a.259.259,0,0,1,0,.306l-1.443,1.555a.109.109,0,0,1-.083.039h-.2l.036-.13-2.545-4.185A.259.259,0,0,1,372.685,195.529Z" transform="translate(-359.076 -191.563)" fill="#ce8045"/>
      <path id="Path_1035" data-name="Path 1035" d="M374.724,200.131l1.446-1.555a.259.259,0,0,0,0-.306l-2.571-4.224c-.06-.1-.161-.122-.225-.052l-1.446,1.555a.259.259,0,0,0,0,.306l2.573,4.227A.133.133,0,0,0,374.724,200.131Z" transform="translate(-358.512 -191.586)" fill="#ce8045"/>
      <path id="Path_1036" data-name="Path 1036" d="M374.724,200.131l1.446-1.555a.259.259,0,0,0,0-.306l-2.571-4.224c-.06-.1-.161-.122-.225-.052l-1.446,1.555a.259.259,0,0,0,0,.306l2.573,4.227A.133.133,0,0,0,374.724,200.131Z" transform="translate(-358.512 -191.586)" fill="#fff" opacity="0.6"/>
      <path id="Path_1037" data-name="Path 1037" d="M375.02,200.479l1.428-1.542a.127.127,0,0,0,0-.15l-2.49-4.1c-.031-.049-.08-.06-.111-.026l-1.43,1.555a.132.132,0,0,0,0,.148l2.493,4.1A.072.072,0,0,0,375.02,200.479Z" transform="translate(-358.894 -192.097)" fill="#263238"/>
      <g id="Group_1369" data-name="Group 1369" transform="translate(13.911 3.147)" opacity="0.4">
        <path id="Path_1038" data-name="Path 1038" d="M374.051,198.293a.083.083,0,0,0,.052-.021l1.1-1.192a.07.07,0,0,0,0-.1.073.073,0,0,0-.1,0l-1.1,1.192a.07.07,0,0,0,0,.1A.073.073,0,0,0,374.051,198.293Z" transform="translate(-373.982 -196.961)" fill="#fff"/>
      </g>
      <path id="Path_1039" data-name="Path 1039" d="M378.024,203.723a.591.591,0,0,0,.4.3.391.391,0,0,0,.35-.132.712.712,0,0,0,.179-.428,1,1,0,0,0-.137-.583c-.2-.327-.534-.4-.749-.168A.9.9,0,0,0,378.024,203.723Z" transform="translate(-362.966 -197.974)" fill="#fff" opacity="0.4"/>
      <path id="Path_1040" data-name="Path 1040" d="M379.189,204.952l.016.026a.391.391,0,0,0,.35-.132.713.713,0,0,0,.179-.425l-.016-.026a.329.329,0,0,0-.4-.179.357.357,0,0,0-.047-.238c-.073-.117-.194-.145-.272-.06a.321.321,0,0,0,0,.365.2.2,0,0,0,.163.111A.635.635,0,0,0,379.189,204.952Z" transform="translate(-363.745 -198.931)" fill="#fff"/>
      <path id="Path_1041" data-name="Path 1041" d="M381.2,210.473l1.368-1.48a.088.088,0,0,0,0-.1l-.368-.6a.047.047,0,0,0-.075-.016l-1.363,1.475a.088.088,0,0,0,0,.1l.368.6a.047.047,0,0,0,.07.021Z" transform="translate(-365.084 -202.185)" fill="#fff" opacity="0.2"/>
      <g id="Group_1370" data-name="Group 1370" transform="translate(14.547 3.931)" opacity="0.4">
        <path id="Path_1042" data-name="Path 1042" d="M376.475,200.3a.036.036,0,0,0,.026-.013l.228-.246a.035.035,0,1,0-.052-.047l-.228.246a.034.034,0,0,0,0,.049A.039.039,0,0,0,376.475,200.3Z" transform="translate(-376.439 -199.985)" fill="#fff"/>
      </g>
      <path id="Path_1043" data-name="Path 1043" d="M381.935,214.216c.049.083.135.1.189.044a.225.225,0,0,0,0-.259c-.049-.083-.135-.1-.189-.041A.225.225,0,0,0,381.935,214.216Z" transform="translate(-365.934 -206.381)" fill="#fff" opacity="0.4"/>
      <path id="Path_1044" data-name="Path 1044" d="M383.2,212.847c.049.083.132.1.187.041a.22.22,0,0,0,0-.259c-.049-.083-.132-.1-.187-.044A.22.22,0,0,0,383.2,212.847Z" transform="translate(-366.866 -205.365)" fill="#fff" opacity="0.4"/>
      <path id="Path_1045" data-name="Path 1045" d="M384.463,211.494c.049.08.132.1.187.041a.225.225,0,0,0,0-.259c-.049-.08-.132-.1-.187-.041A.225.225,0,0,0,384.463,211.494Z" transform="translate(-367.806 -204.364)" fill="#fff" opacity="0.4"/>
      <path id="Path_1046" data-name="Path 1046" d="M385.723,210.161c.049.08.132.1.187.041a.226.226,0,0,0,0-.259c-.049-.08-.132-.1-.187-.041A.225.225,0,0,0,385.723,210.161Z" transform="translate(-368.739 -203.376)" fill="#ce8045"/>
      <path id="Path_1047" data-name="Path 1047" d="M364.043,187.66a2.237,2.237,0,0,1,1.472.6c.448.565,1.324,2.794.715,3.167s-2.6.06-2.851-.728S364.043,187.66,364.043,187.66Z" transform="translate(-352.185 -186.923)" fill="#263238"/>
      <path id="Path_1048" data-name="Path 1048" d="M350.7,191.667c.689,2,1.2,3.335,2.708,3.887,2.993,1.117,4.211-.339,4.18-2.488-.026-1.936-1.145-4.875-3.514-5.165A2.951,2.951,0,0,0,350.7,191.667Z" transform="translate(-342.705 -187.082)" fill="#ebb376"/>
      <path id="Path_1049" data-name="Path 1049" d="M361.607,200.714a1.036,1.036,0,0,0-.777.156A2.073,2.073,0,0,0,361.607,200.714Z" transform="translate(-350.328 -196.579)" fill="#d58745"/>
      <path id="Path_1050" data-name="Path 1050" d="M362.07,201.5a.863.863,0,0,0-.65.314A1.692,1.692,0,0,0,362.07,201.5Z" transform="translate(-350.765 -197.176)" fill="#d58745"/>
      <path id="Path_1051" data-name="Path 1051" d="M364.54,192.06a9.686,9.686,0,0,0-1.97.321C363.674,192.241,364.54,192.06,364.54,192.06Z" transform="translate(-351.617 -190.183)" fill="#d58745"/>
      <path id="Path_1052" data-name="Path 1052" d="M365.145,192.69a9.654,9.654,0,0,0-2.185.63,18.074,18.074,0,0,0,2.185-.63Z" transform="translate(-351.906 -190.65)" fill="#d58745"/>
      <path id="Path_1053" data-name="Path 1053" d="M366.307,199.427c.044.179.176.3.293.259s.174-.2.13-.378-.176-.3-.293-.259S366.263,199.248,366.307,199.427Z" transform="translate(-354.375 -195.355)" fill="#263238"/>
      <path id="Path_1054" data-name="Path 1054" d="M373.484,197.805c.044.179.174.3.29.259a.3.3,0,0,0,.132-.378c-.044-.179-.176-.3-.293-.259A.3.3,0,0,0,373.484,197.805Z" transform="translate(-359.691 -194.153)" fill="#263238"/>
      <path id="Path_1055" data-name="Path 1055" d="M361.837,197.193a.1.1,0,0,1-.054,0,.109.109,0,0,1-.057-.143,1.1,1.1,0,0,1,.746-.656.106.106,0,0,1,.124.088.111.111,0,0,1-.086.127h0a.86.86,0,0,0-.586.518A.109.109,0,0,1,361.837,197.193Z" transform="translate(-350.984 -193.393)" fill="#263238"/>
      <path id="Path_1056" data-name="Path 1056" d="M373.019,194.934a.109.109,0,0,1-.1-.026.852.852,0,0,0-.741-.238.1.1,0,0,1-.13-.078.109.109,0,0,1,.078-.132,1.068,1.068,0,0,1,.943.29.109.109,0,0,1,0,.153A.117.117,0,0,1,373.019,194.934Z" transform="translate(-358.638 -191.947)" fill="#263238"/>
      <path id="Path_1057" data-name="Path 1057" d="M367.915,207.83a15.16,15.16,0,0,0-2.905.435,1.722,1.722,0,0,0,2.037.762,1.005,1.005,0,0,0,.868-1.2Z" transform="translate(-353.424 -201.866)" fill="#263238"/>
      <path id="Path_1058" data-name="Path 1058" d="M368.7,210.733a2.008,2.008,0,0,1,1.244.057,1.184,1.184,0,0,1-.635.334,1.993,1.993,0,0,1-1.244-.057,1.169,1.169,0,0,1,.635-.334Z" transform="translate(-355.691 -203.963)" fill="#a02724"/>
      <path id="Path_1059" data-name="Path 1059" d="M368.088,207.83a.446.446,0,0,1-.259.386,11.262,11.262,0,0,1-1.9.238.606.606,0,0,1-.544-.21,18.044,18.044,0,0,1,2.708-.415Z" transform="translate(-353.699 -201.866)" fill="#fff"/>
      <path id="Path_1060" data-name="Path 1060" d="M350.44,184.833c-.715-.161-3.535.868-4.113,2.332a3.939,3.939,0,0,0,.777,4.146,13.873,13.873,0,0,0,1.941.13c.951-.016.539-2.638-.127-3.2l-.143-.065c-.368-.179-.977-.547-1-.777a2.4,2.4,0,0,1,1.459-1.358c.625-.062,1.394.1,1.783.026a2.538,2.538,0,0,0,.614-.176A2.264,2.264,0,0,0,350.44,184.833Z" transform="translate(-339.375 -184.816)" fill="#263238"/>
      <path id="Path_1061" data-name="Path 1061" d="M349.123,206.922a2.128,2.128,0,0,0,1.532.588c.754-.029.91-.759.518-1.355-.358-.534-1.179-1.164-1.848-.847A.969.969,0,0,0,349.123,206.922Z" transform="translate(-341.401 -199.934)" fill="#ebb376"/>
      <path id="Path_1062" data-name="Path 1062" d="M358.68,204.8a4.084,4.084,0,0,0,.42,1.169c.2.2.676-.658.9-.9s1.845-.052,1.845-.052a.971.971,0,0,1,.013.2,13.353,13.353,0,0,1-1.736.316c-.189-.023-.666.884.091,1.462a1.65,1.65,0,0,0,1.633.409c.246-.132.047-.544.047-.544l.466-.1s.036.412.277.5.568-.969.591-1.555-.293-.736-1.006-.495l-.078-.3a4.151,4.151,0,0,1,1.008-.394,2.45,2.45,0,0,1,.456,1.731,2.1,2.1,0,0,1-1.625,2.058,4.207,4.207,0,0,1-3.2-.6c-.767-.573-.363-1.83-.363-1.83Z" transform="translate(-348.46 -199.406)" fill="#263238"/>
      <path id="Path_1063" data-name="Path 1063" d="M371.29,200.06l.365,1.506a1.729,1.729,0,0,0,.534-.109.2.2,0,0,0,.026-.358A3.6,3.6,0,0,1,371.29,200.06Z" transform="translate(-358.077 -196.11)" fill="#d58745"/>
      <path id="Path_1064" data-name="Path 1064" d="M374.26,327.721l1-6.261s.845,7.515.013,9.832C375.032,330.323,374.26,327.721,374.26,327.721Z" transform="translate(-360.277 -286.049)" opacity="0.2"/>
    </g>
    <g id="freepik--character-1--inject-91" transform="translate(17.535 73.022)">
      <path id="Path_1065" data-name="Path 1065" d="M94.082,395.19c-.143,1.3-.259,5.053-.552,5.96.518,1,1.267,1.213,1.747.632s1.407-5.605,1.407-5.605Z" transform="translate(-86.827 -332.239)" fill="#ebb376"/>
      <path id="Path_1066" data-name="Path 1066" d="M79.771,415.791s3.143-.925,3.369-2.164a.215.215,0,0,1,.259-.181l2.283.384a.3.3,0,0,1,.233.2l.176,2.221-1.423.021-.179-.15-1.109.166c-3.5.111-2.944.119-3.646-.078C79.618,415.918,79.771,415.791,79.771,415.791Z" transform="translate(-76.574 -345.76)" fill="#263238"/>
      <path id="Path_1067" data-name="Path 1067" d="M90.559,280.413c.435,6.466.518,17.329.518,17.329l3.073.135a80.742,80.742,0,0,0,1.788-13.667q.031-.982.029-1.967a100.74,100.74,0,0,1,2.5-11.4c.762-2.783,1.433-5,1.8-7.114l-9.07-2.947C90.678,262.369,89.8,269.189,90.559,280.413Z" transform="translate(-84.407 -232.661)" fill="#263238"/>
      <path id="Path_1068" data-name="Path 1068" d="M90.559,280.413c.435,6.466.518,17.329.518,17.329l3.073.135a80.742,80.742,0,0,0,1.788-13.667q.031-.982.029-1.967a100.74,100.74,0,0,1,2.5-11.4c.762-2.783,1.433-5,1.8-7.114l-9.07-2.947C90.678,262.369,89.8,269.189,90.559,280.413Z" transform="translate(-84.407 -232.661)" fill="#fff" opacity="0.2"/>
      <path id="Path_1069" data-name="Path 1069" d="M95.26,403.631a9.557,9.557,0,0,1-2.915-.555c-.376-.231-.137-1.749-.137-1.749s3.281-.031,3.53.259S95.26,403.631,95.26,403.631Z" transform="translate(-85.791 -336.785)" fill="#263238"/>
      <path id="Path_1070" data-name="Path 1070" d="M95.26,403.631a9.557,9.557,0,0,1-2.915-.555c-.376-.231-.137-1.749-.137-1.749s3.281-.031,3.53.259S95.26,403.631,95.26,403.631Z" transform="translate(-85.791 -336.785)" fill="#fff" opacity="0.3"/>
      <path id="Path_1071" data-name="Path 1071" d="M105.817,297.775q.031-.982.028-1.967a100.742,100.742,0,0,1,2.5-11.4c-.977-2.783-3.029-5.072-4.372-5.315C103.969,279.1,102.4,291.389,105.817,297.775Z" transform="translate(-94.293 -246.226)" opacity="0.1"/>
      <path id="Path_1072" data-name="Path 1072" d="M93.079,256.854a10.568,10.568,0,0,1,.044-2.154c0-.225,10.6-.454,11.454-.4a36.862,36.862,0,0,1,.114,6.22C97.244,260.855,93.292,258.165,93.079,256.854Z" transform="translate(-86.467 -227.854)" fill="#263238"/>
      <path id="Path_1073" data-name="Path 1073" d="M93.079,256.854a10.568,10.568,0,0,1,.044-2.154c0-.225,10.6-.454,11.454-.4a36.862,36.862,0,0,1,.114,6.22C97.244,260.855,93.292,258.165,93.079,256.854Z" transform="translate(-86.467 -227.854)" fill="#fff" opacity="0.2"/>
      <path id="Path_1074" data-name="Path 1074" d="M106.635,259.651c-1.607,0-3.314-.049-4.61-.1a4.624,4.624,0,0,1-.018-1c1.814.047,3.369.07,4.644.083C106.656,258.933,106.656,259.392,106.635,259.651Z" transform="translate(-93.093 -231.017)"/>
      <path id="Path_1075" data-name="Path 1075" d="M95.5,259.371c-.682-.029-1.195-.06-1.436-.091a.145.145,0,0,1-.127-.135c0-.161-.034-.451-.034-.656a.15.15,0,0,1,.153-.15l1.475.044A5.776,5.776,0,0,0,95.5,259.371Z" transform="translate(-87.101 -230.854)"/>
      <path id="Path_1076" data-name="Path 1076" d="M125.957,259.718a.145.145,0,0,1-.122.1c-.71.078-2.094.106-3.646.1a6.183,6.183,0,0,0-.039-1.006c2.073.016,3.322,0,3.708,0a.148.148,0,0,1,.148.132,1.845,1.845,0,0,1-.049.666Z" transform="translate(-108.03 -231.283)"/>
      <path id="Path_1077" data-name="Path 1077" d="M132.58,396.87c.117,1.3.736,5.007.64,5.96.715.871,1.48.938,1.835.275s.259-5.789.259-5.789Z" transform="translate(-115.757 -333.484)" fill="#ebb376"/>
      <path id="Path_1078" data-name="Path 1078" d="M113.048,285.554c-.394-9.446-.023-15.367-.15-19.8l-8.772-.29c-.181,1.653.311,8.51,3.265,19.366,1.7,6.251,3.923,16.889,3.923,16.889l3.04-.477A78.228,78.228,0,0,0,113.048,285.554Z" transform="translate(-94.652 -236.129)" fill="#263238"/>
      <path id="Path_1079" data-name="Path 1079" d="M113.048,285.554c-.394-9.446-.023-15.367-.15-19.8l-8.772-.29c-.181,1.653.311,8.51,3.265,19.366,1.7,6.251,3.923,16.889,3.923,16.889l3.04-.477A78.228,78.228,0,0,0,113.048,285.554Z" transform="translate(-94.652 -236.129)" fill="#fff" opacity="0.2"/>
      <path id="Path_1080" data-name="Path 1080" d="M134.067,403.763a9.531,9.531,0,0,1-2.967.031c-.415-.153-.479-1.687-.479-1.687s3.211-.679,3.509-.451S134.067,403.763,134.067,403.763Z" transform="translate(-114.305 -336.995)" fill="#263238"/>
      <path id="Path_1081" data-name="Path 1081" d="M134.067,403.763a9.531,9.531,0,0,1-2.967.031c-.415-.153-.479-1.687-.479-1.687s3.211-.679,3.509-.451S134.067,403.763,134.067,403.763Z" transform="translate(-114.305 -336.995)" fill="#fff" opacity="0.3"/>
      <path id="Path_1082" data-name="Path 1082" d="M120.011,415.791s3.143-.925,3.369-2.164a.215.215,0,0,1,.259-.181l2.281.384a.3.3,0,0,1,.233.2l.179,2.221-1.423.021-.179-.15-1.109.166c-3.5.111-2.947.119-3.646-.078C119.865,415.918,120.011,415.791,120.011,415.791Z" transform="translate(-106.388 -345.76)" fill="#263238"/>
      <path id="Path_1083" data-name="Path 1083" d="M76.675,180.96c-1.236-.259-2.882-.557-4.095-.871a12.159,12.159,0,0,1-4.084-1.555,1.931,1.931,0,0,1-.337-2.882,3.792,3.792,0,0,1,1.329-.85,20.067,20.067,0,0,1,3.226-.964c1.013-.231,2.128-.433,3.151-.617l.518-.091a1.28,1.28,0,0,1,.544-.034l.451,1.83c-.106.13-.329.163-.474.225l-.49.174c-.946.342-1.985.736-2.905,1.109a17.472,17.472,0,0,0-3.037,1.423.309.309,0,0,0,.057-.044,1.143,1.143,0,0,0,.282-.487,1.443,1.443,0,0,0-.106-1.078,1.078,1.078,0,0,0-.244-.311c-.023-.023,0-.013.023,0a35.918,35.918,0,0,0,4.869,1.1c.643.124,1.462.259,2.115.425l-.8,3.5Z" transform="translate(-67.663 -167.69)" fill="#e9bfbb"/>
      <path id="Path_1084" data-name="Path 1084" d="M93.865,186.87l-1.695,2.755-1.208,1.962-1.037-.4L88.42,190.6l1.037-4.45S92.605,186.629,93.865,186.87Z" transform="translate(-83.041 -177.371)" fill="#ce8045"/>
      <path id="Path_1085" data-name="Path 1085" d="M96.578,197.65c-.031.171-.067.334-.1.495l-1.208,1.962-1.037-.4A5.183,5.183,0,0,1,96.578,197.65Z" transform="translate(-87.345 -185.891)" opacity="0.2"/>
      <path id="Path_1086" data-name="Path 1086" d="M100.94,170.354l1.3-1.814,1.653,2.091s-1.363,1.5-2.278.9Z" transform="translate(-92.316 -164.325)" fill="#eec1bb"/>
      <path id="Path_1087" data-name="Path 1087" d="M108.173,165.868l.456.832a.777.777,0,0,1-.2.977l-.876.687-1.653-2.091,1.213-.7a.777.777,0,0,1,1.06.3Z" transform="translate(-95.991 -162.052)" fill="#eec1bb"/>
      <path id="Path_1088" data-name="Path 1088" d="M106.619,194.077a27.686,27.686,0,0,0-.777,2.687c-.132.518-.241,1.024-.347,1.508-.117.542-.231,1.065-.358,1.594s-.275,1.063-.459,1.625a.2.2,0,0,1-.021.06c-.573,2.47-.137,2.387-.518,4.406,0,0,.259,1.182-.586,1.221-1.944.093-7.65,1.037-11.263-.568a1.246,1.246,0,0,1,.026-1.866c.259-3.252.166-8.469.873-11.143a4.761,4.761,0,0,1,.342-.948,12.774,12.774,0,0,1,2.731-3.861,6.4,6.4,0,0,0,.9.109,37.3,37.3,0,0,1,7.588,1.464,2.921,2.921,0,0,1,1.863,1.791A2.884,2.884,0,0,1,106.619,194.077Z" transform="translate(-85.611 -179.327)" fill="#ce8045"/>
      <path id="Path_1089" data-name="Path 1089" d="M119.9,175.49a10.366,10.366,0,0,0,.036,4.494.277.277,0,0,1-.124.3,4.528,4.528,0,0,1-3.5.884c-1.627-.28-1.773-1.013-1.3-1.506a.673.673,0,0,1,.259-.155c1.218-.448,1.42-1.311,1.213-1.894Z" transform="translate(-102.569 -169.474)" fill="#eec1bb"/>
      <path id="Path_1090" data-name="Path 1090" d="M124.358,175.5l-3.413,2.115a1.252,1.252,0,0,1-.145,1.125,2.485,2.485,0,0,0,1.791-.288,3.79,3.79,0,0,0,1.653-2.236C124.273,175.987,124.311,175.751,124.358,175.5Z" transform="translate(-107.03 -169.481)" opacity="0.2"/>
      <path id="Path_1091" data-name="Path 1091" d="M110.6,162.187l-.777-1.928.093-.047a.991.991,0,0,0-.184-.073.163.163,0,0,0-.158.036l-3.9,3.014a.259.259,0,0,0-.1.29l.777,1.975a.114.114,0,0,0,.062.067h0l.181.07.016-.135,3.887-2.985a.259.259,0,0,0,.1-.285Z" transform="translate(-95.743 -158.097)" fill="#ce8045"/>
      <path id="Path_1092" data-name="Path 1092" d="M107.014,165.707l-.777-1.977a.259.259,0,0,1,.1-.29l3.918-3.014c.091-.07.194-.054.228.036l.777,1.977a.259.259,0,0,1-.1.288l-3.916,3.014C107.152,165.81,107.051,165.795,107.014,165.707Z" transform="translate(-96.232 -158.281)" fill="#ce8045"/>
      <path id="Path_1093" data-name="Path 1093" d="M107.014,165.707l-.777-1.977a.259.259,0,0,1,.1-.29l3.918-3.014c.091-.07.194-.054.228.036l.777,1.977a.259.259,0,0,1-.1.288l-3.916,3.014C107.152,165.81,107.051,165.795,107.014,165.707Z" transform="translate(-96.232 -158.281)" fill="#fff" opacity="0.6"/>
      <path id="Path_1094" data-name="Path 1094" d="M107.567,166.05l-.777-1.954a.137.137,0,0,1,.052-.143l3.8-2.923c.044-.034.093-.026.111.018l.777,1.954a.135.135,0,0,1-.049.14l-3.8,2.926C107.634,166.1,107.585,166.094,107.567,166.05Z" transform="translate(-96.647 -158.746)" fill="#263238"/>
      <g id="Group_1371" data-name="Group 1371" transform="translate(13.696 2.79)" opacity="0.4">
        <path id="Path_1095" data-name="Path 1095" d="M121.157,164.689a.08.08,0,0,1-.039-.039l-.6-1.508a.07.07,0,1,1,.13-.052l.6,1.508a.07.07,0,0,1-.039.091A.088.088,0,0,1,121.157,164.689Z" transform="translate(-120.513 -163.041)" fill="#fff"/>
      </g>
      <path id="Path_1096" data-name="Path 1096" d="M115.026,168.956a.591.591,0,0,1-.482.135.389.389,0,0,1-.28-.259.728.728,0,0,1,0-.459,1.008,1.008,0,0,1,.339-.5c.3-.231.64-.181.759.114a.9.9,0,0,1-.337.967Z" transform="translate(-102.16 -163.725)" fill="#fff" opacity="0.4"/>
      <path id="Path_1097" data-name="Path 1097" d="M114.567,170.054l-.023.018a.389.389,0,0,1-.28-.259.728.728,0,0,1,0-.459l.023-.021a.334.334,0,0,1,.441-.021.358.358,0,0,1,.13-.2c.109-.086.231-.065.275.041a.324.324,0,0,1-.122.345.2.2,0,0,1-.194.044A.632.632,0,0,1,114.567,170.054Z" transform="translate(-102.16 -164.707)" fill="#fff"/>
      <path id="Path_1098" data-name="Path 1098" d="M107.864,173.225l-.744-1.876a.088.088,0,0,1,.034-.1l.56-.428a.047.047,0,0,1,.075,0l.744,1.874a.086.086,0,0,1-.034.1l-.557.43C107.9,173.259,107.864,173.254,107.864,173.225Z" transform="translate(-96.893 -166.004)" fill="#fff" opacity="0.2"/>
      <g id="Group_1372" data-name="Group 1372" transform="translate(13.703 3.622)" opacity="0.4">
        <path id="Path_1099" data-name="Path 1099" d="M120.685,166.633a.031.031,0,0,1-.018-.018l-.124-.314a.036.036,0,0,1,.018-.047.039.039,0,0,1,.047.021l.124.314a.034.034,0,0,1-.021.044Z" transform="translate(-120.539 -166.253)" fill="#fff"/>
      </g>
      <path id="Path_1100" data-name="Path 1100" d="M110.43,177.8c-.078.057-.161.044-.192-.029a.225.225,0,0,1,.086-.241c.075-.057.161-.044.189.029A.228.228,0,0,1,110.43,177.8Z" transform="translate(-99.199 -170.958)" fill="#ce8045"/>
      <path id="Path_1101" data-name="Path 1101" d="M109.755,176.07c-.075.057-.161.044-.189-.029a.22.22,0,0,1,.083-.238c.075-.06.161-.047.189.029A.22.22,0,0,1,109.755,176.07Z" transform="translate(-98.701 -169.678)" fill="#fff" opacity="0.4"/>
      <path id="Path_1102" data-name="Path 1102" d="M109.068,174.345c-.075.06-.158.047-.189-.029a.225.225,0,0,1,.083-.238c.078-.057.161-.044.192.029A.22.22,0,0,1,109.068,174.345Z" transform="translate(-98.192 -168.402)" fill="#fff" opacity="0.4"/>
      <path id="Path_1103" data-name="Path 1103" d="M108.435,172.62c-.075.057-.161.044-.189-.029a.22.22,0,0,1,.083-.238c.075-.06.161-.047.189.029A.225.225,0,0,1,108.435,172.62Z" transform="translate(-97.723 -167.122)" fill="#fff" opacity="0.4"/>
      <path id="Path_1104" data-name="Path 1104" d="M105.465,202.058a31.173,31.173,0,0,1-.816,3.219.2.2,0,0,1-.021.06c-.573,2.47-.137,2.387-.518,4.406,0,0,.259,1.182-.586,1.221-1.944.093-7.65,1.037-11.263-.568a1.246,1.246,0,0,1,.026-1.866c.259-3.252.166-8.469.873-11.143a9.461,9.461,0,0,1,4.063-3.486s.091.635,1.241,1.07a4.9,4.9,0,0,0,3.4,0s1.412,1.1,2.27,4.255A6.635,6.635,0,0,0,105.465,202.058Z" transform="translate(-85.589 -183.113)" fill="#fff" opacity="0.7"/>
      <path id="Path_1105" data-name="Path 1105" d="M142.58,217.456c-.132.518-.241,1.024-.347,1.508-.117.542-.231,1.065-.358,1.594a7.609,7.609,0,0,1-.241-3.838A2.382,2.382,0,0,1,142.58,217.456Z" transform="translate(-122.357 -200.019)" opacity="0.2"/>
      <path id="Path_1106" data-name="Path 1106" d="M135.642,205.805A52.52,52.52,0,0,1,137,212.849a6.006,6.006,0,0,1-.13,2.661,8.741,8.741,0,0,1-.99,1.677c-.695.982-1.456,1.91-2.226,2.82-.871,1.018-1.83,2.089-2.734,3.081-.119.117-.259.342-.441.4L129,222.321a1.477,1.477,0,0,1,.277-.518l.321-.482c.622-.938,1.3-1.972,1.889-2.915a35.69,35.69,0,0,0,2.348-3.993v0a.2.2,0,0,0-.016.041v.023a.923.923,0,0,0-.016-.2c-.332-2.524-1.075-5.1-1.64-7.6l3.48-.881Z" transform="translate(-113.105 -191.929)" fill="#e9bfbb"/>
      <path id="Path_1107" data-name="Path 1107" d="M140.16,194.47a7.981,7.981,0,0,1,3.182,1.464c1.555,1.4,1.835,6.432,1.835,6.432l-3.791,1.171-.9-2.568Z" transform="translate(-121.373 -183.535)" fill="#ce8045"/>
      <path id="Path_1108" data-name="Path 1108" d="M120.241,157.78s-1.4.762-1.114,3.182S122.639,158.832,120.241,157.78Z" transform="translate(-105.761 -156.353)" fill="#eec1bb"/>
      <path id="Path_1109" data-name="Path 1109" d="M120.241,157.78s-1.4.762-1.114,3.182S122.639,158.832,120.241,157.78Z" transform="translate(-105.761 -156.353)" opacity="0.5"/>
      <path id="Path_1110" data-name="Path 1110" d="M123.074,161.361c-.466,1.827-.259,2.172-1.373,2.934-1.674,1.143-4.025.985-4-.951.023-1.741.43-4.825,2.379-5.2a2.591,2.591,0,0,1,3,3.216Z" transform="translate(-104.732 -156.589)" fill="#eec1bb"/>
      <path id="Path_1111" data-name="Path 1111" d="M128.6,168.831c-.036.155-.109.155-.212.13s-.192-.062-.156-.22.148-.259.259-.238S128.641,168.673,128.6,168.831Z" transform="translate(-112.533 -164.295)" fill="#263238"/>
      <path id="Path_1112" data-name="Path 1112" d="M121.078,167.879c-.036.158-.111.158-.213.132s-.194-.062-.158-.22.15-.259.259-.238S121.114,167.723,121.078,167.879Z" transform="translate(-106.955 -163.591)" fill="#263238"/>
      <path id="Path_1113" data-name="Path 1113" d="M121.2,168.77a4.383,4.383,0,0,1-.754.938.713.713,0,0,0,.562.21Z" transform="translate(-106.77 -164.495)" fill="#d4827d"/>
      <path id="Path_1114" data-name="Path 1114" d="M129.2,165.549a.088.088,0,0,0,.044,0,.091.091,0,0,0,.031-.13.949.949,0,0,0-.726-.469.093.093,0,0,0-.1.091.1.1,0,0,0,.091.1h0a.757.757,0,0,1,.57.376.1.1,0,0,0,.086.034Z" transform="translate(-112.697 -161.665)" fill="#263238"/>
      <path id="Path_1115" data-name="Path 1115" d="M119.584,164.458a.1.1,0,0,0,.088,0,.741.741,0,0,1,.666-.13.093.093,0,0,0,.122-.054.1.1,0,0,0-.057-.122.93.93,0,0,0-.842.153.1.1,0,0,0-.021.132A.134.134,0,0,0,119.584,164.458Z" transform="translate(-106.083 -161.044)" fill="#263238"/>
      <path id="Path_1116" data-name="Path 1116" d="M124.825,155.516a1.1,1.1,0,0,0-.5-.936c-.518-.285-2.024.259-2.851-.49a1.115,1.115,0,0,1,.777-1.713c1.511-.43,4.082.557,4.753,1.827a2.344,2.344,0,0,1,.194,2.141,1.278,1.278,0,0,0-.031-.578,1.731,1.731,0,0,1-.606,1.368Z" transform="translate(-107.395 -152.275)" fill="#263238"/>
      <path id="Path_1117" data-name="Path 1117" d="M134.942,166.212c-.9.4-.614-.461-.544-.544.3-.368.127-.938-.083-1.736a2.2,2.2,0,0,1,.057-.9,4.989,4.989,0,0,1,1.677.122.8.8,0,0,1,.6.749A2.6,2.6,0,0,1,134.942,166.212Z" transform="translate(-117.025 -160.225)" fill="#eec1bb"/>
      <path id="Path_1118" data-name="Path 1118" d="M134.942,166.212c-.9.4-.614-.461-.544-.544.3-.368.127-.938-.083-1.736a2.2,2.2,0,0,1,.057-.9,4.989,4.989,0,0,1,1.677.122.8.8,0,0,1,.6.749A2.6,2.6,0,0,1,134.942,166.212Z" transform="translate(-117.025 -160.225)" opacity="0.5"/>
      <path id="Path_1119" data-name="Path 1119" d="M136.188,172.578a1.713,1.713,0,0,1-1.021.741c-.534.119-.718-.415-.5-.948.2-.477.715-1.117,1.218-1S136.5,172.111,136.188,172.578Z" transform="translate(-117.237 -166.411)" fill="#eec1bb"/>
      <path id="Path_1120" data-name="Path 1120" d="M122.27,176.248a.054.054,0,0,1-.026-.1,2.547,2.547,0,0,1,1.2-.213.054.054,0,0,1,0,.109,2.49,2.49,0,0,0-1.143.2.059.059,0,0,1-.029.008Z" transform="translate(-108.08 -169.799)" fill="#263238"/>
    </g>
  </g>
</svg>
